<svg width="17" height="16" viewBox="0 0 17 16" fill="none" xmlns="http://www.w3.org/2000/svg">
<g id="Linear / Arrows / Arrow left">
<g id="Group">
<g id="Group_2">
<path id="Vector" d="M5.07032 8.41589L9.81712 13.1626C9.92691 13.2725 10.0735 13.333 10.2297 13.333C10.386 13.333 10.5326 13.2725 10.6424 13.1626L10.9919 12.8131C11.2194 12.5854 11.2194 12.2153 10.9919 11.9879L7.00591 8.00189L10.9963 4.01146C11.1061 3.90158 11.1667 3.75511 11.1667 3.59893C11.1667 3.44257 11.1061 3.2961 10.9963 3.18614L10.6468 2.83675C10.5369 2.72687 10.3904 2.66634 10.2342 2.66634C10.0779 2.66634 9.93133 2.72687 9.82155 2.83675L5.07032 7.5878C4.96027 7.69802 4.89983 7.84518 4.90018 8.00162C4.89983 8.15868 4.96027 8.30575 5.07032 8.41589Z" fill="#393D4E"/>
</g>
</g>
</g>
</svg>
