<svg width="17" height="16" viewBox="0 0 17 16" fill="none" xmlns="http://www.w3.org/2000/svg">
<g id="Linear / Arrows / Arrow right">
<g id="Group">
<g id="Group_2">
<path id="Vector" d="M11.2632 8.41589L6.51637 13.1626C6.40659 13.2725 6.26003 13.333 6.10376 13.333C5.94749 13.333 5.80093 13.2725 5.69115 13.1626L5.34158 12.8131C5.11411 12.5854 5.11411 12.2153 5.34158 11.9879L9.32758 8.00189L5.33715 4.01146C5.22736 3.90158 5.16675 3.75511 5.16675 3.59893C5.16675 3.44257 5.22736 3.2961 5.33715 3.18614L5.68672 2.83675C5.7966 2.72687 5.94307 2.66634 6.09934 2.66634C6.25561 2.66634 6.40216 2.72687 6.51195 2.83675L11.2632 7.5878C11.3732 7.69802 11.4337 7.84518 11.4333 8.00162C11.4337 8.15868 11.3732 8.30575 11.2632 8.41589Z" fill="#393D4E"/>
</g>
</g>
</g>
</svg>
