<svg width="16" height="17" viewBox="0 0 16 17" fill="none" xmlns="http://www.w3.org/2000/svg">
<g id="Linear / Arrows / Arrow Down">
<g id="Group">
<g id="Group_2">
<path id="Vector" d="M8.41613 11.2632L13.1628 6.51637C13.2727 6.40659 13.3333 6.26003 13.3333 6.10376C13.3333 5.94749 13.2727 5.80093 13.1628 5.69114L12.8134 5.34158C12.5856 5.11411 12.2155 5.11411 11.9881 5.34158L8.00213 9.32758L4.0117 5.33715C3.90183 5.22737 3.75536 5.16675 3.59917 5.16675C3.44282 5.16675 3.29635 5.22737 3.18639 5.33715L2.83699 5.68672C2.72712 5.7966 2.66658 5.94307 2.66658 6.09934C2.66658 6.25561 2.72712 6.40216 2.83699 6.51195L7.58804 11.2632C7.69826 11.3732 7.84543 11.4337 8.00187 11.4333C8.15892 11.4337 8.306 11.3732 8.41613 11.2632Z" fill="#8E93AA"/>
</g>
</g>
</g>
</svg>
