<svg width="20" height="20" viewBox="0 0 20 20" fill="none" xmlns="http://www.w3.org/2000/svg">
<path d="M10.5196 6.54597L16.453 12.4795C16.5904 12.6167 16.666 12.7999 16.666 12.9952C16.666 13.1906 16.5904 13.3738 16.453 13.511L16.0162 13.948C15.7315 14.2323 15.2688 14.2323 14.9846 13.948L10.0021 8.96546L5.01408 13.9535C4.87673 14.0907 4.69365 14.1665 4.49842 14.1665C4.30297 14.1665 4.11988 14.0907 3.98243 13.9535L3.54569 13.5165C3.40834 13.3792 3.33268 13.1961 3.33268 13.0008C3.33268 12.8054 3.40834 12.6222 3.54569 12.485L9.4845 6.54597C9.62228 6.40841 9.80623 6.33285 10.0018 6.33329C10.1981 6.33285 10.3819 6.40841 10.5196 6.54597Z" fill="#393D4E"/>
</svg>
