<svg width="36" height="36" viewBox="0 0 36 36" fill="none" xmlns="http://www.w3.org/2000/svg">
<g id="clinics x36" clip-path="url(#clip0_1544_11060)">
<g id="Group">
<g id="Page-1_9_">
<g id="_x30_10---Hospital">
<g id="Shape_17_">
<path d="M18 4C10.268 4 4 10.268 4 18C4 25.732 10.268 32 18 32C25.7319 32 32 25.732 32 18C31.9913 10.2717 25.7283 4.00874 18 4ZM27.1304 19.2174C27.1304 20.2259 26.3129 21.0435 25.3043 21.0435H21.0435V25.3043C21.0435 26.3128 20.2259 27.1304 19.2174 27.1304H16.7826C15.7741 27.1304 14.9565 26.3129 14.9565 25.3043V21.0435H10.6957C9.68717 21.0435 8.86956 20.2259 8.86956 19.2174V16.7826C8.86956 15.7741 9.68711 14.9565 10.6957 14.9565H14.9565V10.6957C14.9565 9.68717 15.7741 8.86956 16.7826 8.86956H19.2174C20.2259 8.86956 21.0435 9.68711 21.0435 10.6957V14.9565H25.3044C26.3129 14.9565 27.1305 15.7741 27.1305 16.7826L27.1304 19.2174Z" fill="url(#paint0_linear_1544_11060)"/>
<path d="M27.1304 19.2174C27.1304 20.2259 26.3129 21.0435 25.3043 21.0435H21.0435V25.3043C21.0435 26.3128 20.2259 27.1304 19.2174 27.1304H16.7826C15.7741 27.1304 14.9565 26.3129 14.9565 25.3043V21.0435H10.6957C9.68717 21.0435 8.86956 20.2259 8.86956 19.2174V16.7826C8.86956 15.7741 9.68711 14.9565 10.6957 14.9565H14.9565V10.6957C14.9565 9.68717 15.7741 8.86956 16.7826 8.86956H19.2174C20.2259 8.86956 21.0435 9.68711 21.0435 10.6957V14.9565H25.3044C26.3129 14.9565 27.1305 15.7741 27.1305 16.7826L27.1304 19.2174Z" fill="url(#paint1_linear_1544_11060)"/>
</g>
<path id="Shape_16_" d="M18 0C8.05887 0 0 8.05887 0 18C0 27.9411 8.05887 35.9999 18 35.9999C27.9411 35.9999 35.9999 27.9411 35.9999 18C35.9999 8.05887 27.9411 0 18 0ZM18 33.5172C9.43003 33.5172 2.48273 26.5699 2.48273 18C2.48273 9.43003 9.43003 2.48279 18 2.48279C26.5699 2.48279 33.5172 9.43003 33.5172 18C33.5076 26.566 26.566 33.5076 18 33.5172Z" fill="url(#paint2_linear_1544_11060)"/>
</g>
</g>
</g>
<path id="Union" d="M16.9333 10C16.3442 10 15.8667 10.4776 15.8667 11.0667V15.8667H11.0667C10.4776 15.8667 10 16.3442 10 16.9333V19.0667C10 19.6558 10.4776 20.1333 11.0667 20.1333H15.8667V24.9333C15.8667 25.5224 16.3442 26 16.9333 26H19.0667C19.6558 26 20.1333 25.5224 20.1333 24.9333V20.1333H24.9333C25.5224 20.1333 26 19.6558 26 19.0667V16.9333C26 16.3442 25.5224 15.8667 24.9333 15.8667H20.1333V11.0667C20.1333 10.4776 19.6558 10 19.0667 10H16.9333Z" fill="white"/>
</g>
<defs>
<linearGradient id="paint0_linear_1544_11060" x1="18" y1="4" x2="18" y2="32" gradientUnits="userSpaceOnUse">
<stop stop-color="#FF5555"/>
<stop offset="1" stop-color="#FF7C7C"/>
</linearGradient>
<linearGradient id="paint1_linear_1544_11060" x1="18" y1="4" x2="18" y2="32" gradientUnits="userSpaceOnUse">
<stop stop-color="#FF5555"/>
<stop offset="1" stop-color="#FF7C7C"/>
</linearGradient>
<linearGradient id="paint2_linear_1544_11060" x1="18" y1="0" x2="18" y2="35.9999" gradientUnits="userSpaceOnUse">
<stop stop-color="#FF5555"/>
<stop offset="1" stop-color="#FF7C7C"/>
</linearGradient>
<clipPath id="clip0_1544_11060">
<rect width="36" height="36" fill="white"/>
</clipPath>
</defs>
</svg>
