<svg width="24" height="24" viewBox="0 0 24 24" fill="none" xmlns="http://www.w3.org/2000/svg">
<g id="Linear / Users / User Id">
<g id="Group 33574">
<g id="Vector">
<path d="M6.75 3.5C3.17 3.5 2.5 4.18 2.5 7.75V15.75C2.5 19.32 3.17 20 6.75 20H16.75C20.33 20 21 19.32 21 15.75V7.75C21 4.18 20.33 3.5 16.75 3.5H6.75Z" fill="#E6EAF0"/>
</g>
<g id="Vector_2">
<path d="M16.75 21.5H6.75C2.34 21.5 1 20.16 1 15.75V7.75C1 3.34 2.34 2 6.75 2H16.75C21.16 2 22.5 3.34 22.5 7.75V15.75C22.5 20.16 21.16 21.5 16.75 21.5ZM6.75 3.5C3.17 3.5 2.5 4.18 2.5 7.75V15.75C2.5 19.32 3.17 20 6.75 20H16.75C20.33 20 21 19.32 21 15.75V7.75C21 4.18 20.33 3.5 16.75 3.5H6.75Z" fill="#8E93AA"/>
</g>
<path id="Vector_3" d="M18.75 8.5H13.75C13.34 8.5 13 8.16 13 7.75C13 7.34 13.34 7 13.75 7H18.75C19.16 7 19.5 7.34 19.5 7.75C19.5 8.16 19.16 8.5 18.75 8.5Z" fill="#8E93AA"/>
<path id="Vector_4" d="M18.75 12.5H14.75C14.34 12.5 14 12.16 14 11.75C14 11.34 14.34 11 14.75 11H18.75C19.16 11 19.5 11.34 19.5 11.75C19.5 12.16 19.16 12.5 18.75 12.5Z" fill="#8E93AA"/>
<path id="Vector_5" d="M18.75 16.5H16.75C16.34 16.5 16 16.16 16 15.75C16 15.34 16.34 15 16.75 15H18.75C19.16 15 19.5 15.34 19.5 15.75C19.5 16.16 19.16 16.5 18.75 16.5Z" fill="#8E93AA"/>
<g id="Vector_6">
<path d="M8.25043 11.7899C6.84043 11.7899 5.69043 10.6399 5.69043 9.22992C5.69043 7.81992 6.84043 6.66992 8.25043 6.66992C9.66043 6.66992 10.8104 7.81992 10.8104 9.22992C10.8104 10.6399 9.66043 11.7899 8.25043 11.7899ZM8.25043 8.16992C7.67043 8.16992 7.19043 8.64992 7.19043 9.22992C7.19043 9.8099 7.67043 10.2899 8.25043 10.2899C8.83043 10.2899 9.31043 9.8099 9.31043 9.22992C9.31043 8.64992 8.83043 8.16992 8.25043 8.16992Z" fill="#8E93AA"/>
<path d="M8.25043 8.16992C7.67043 8.16992 7.19043 8.64992 7.19043 9.22992C7.19043 9.8099 7.67043 10.2899 8.25043 10.2899C8.83043 10.2899 9.31043 9.8099 9.31043 9.22992C9.31043 8.64992 8.83043 8.16992 8.25043 8.16992Z" fill="white"/>
</g>
<path id="Vector_7" d="M11.7499 16.83C11.3699 16.83 11.0399 16.54 10.9999 16.15C10.8899 15.07 10.0199 14.2 8.92991 14.1C8.46991 14.06 8.00991 14.06 7.54991 14.1C6.45991 14.2 5.58991 15.06 5.47991 16.15C5.43991 16.56 5.06991 16.87 4.65991 16.82C4.24991 16.78 3.94991 16.41 3.98991 16C4.16991 14.2 5.59991 12.77 7.40991 12.61C7.95991 12.56 8.51991 12.56 9.06991 12.61C10.8699 12.78 12.3099 14.21 12.4899 16C12.5299 16.41 12.2299 16.78 11.8199 16.82C11.7999 16.83 11.7699 16.83 11.7499 16.83Z" fill="#8E93AA"/>
</g>
</g>
</svg>
