<svg width="33" height="33" viewBox="0 0 33 33" fill="none" xmlns="http://www.w3.org/2000/svg">
<path d="M2.79424 19.6848L6.32538 25.9601C6.39201 26.0791 6.50305 26.166 6.63226 26.2012C6.76047 26.2354 6.89876 26.2178 7.01485 26.1495L12.3196 23.0072V29.2907C12.3196 29.5764 12.5458 29.8082 12.8244 29.8082H19.8857C20.1643 29.8082 20.3904 29.5764 20.3904 29.2907V23.0062L25.6952 26.1485C25.8113 26.2157 25.9486 26.2344 26.0778 26.2002C26.207 26.165 26.317 26.0781 26.3847 25.959L29.9158 19.6838C30.0551 19.4364 29.9723 19.1197 29.7311 18.9769L24.4253 15.8356L29.7301 12.6934C29.9713 12.5505 30.0541 12.2338 29.9148 11.9864L26.3836 5.7112C26.317 5.59217 26.206 5.50523 26.0768 5.47004C25.9476 5.43381 25.8093 5.45244 25.6942 5.52179L20.3894 8.66407V2.38054C20.3894 2.09488 20.1633 1.86304 19.8846 1.86304H12.8234C12.5448 1.86304 12.3186 2.09488 12.3186 2.38054V8.66511L7.01485 5.52282C6.89876 5.45451 6.76047 5.43588 6.63226 5.47107C6.50204 5.50626 6.39201 5.5932 6.32437 5.71223L2.79323 11.9875C2.65392 12.2348 2.7367 12.5516 2.97797 12.6944L8.28376 15.8356L2.97897 18.9779C2.73771 19.1208 2.65493 19.4364 2.79424 19.6848Z" fill="#0ABAB5"/>
</svg>
