
<svg width="36" height="37" viewBox="0 0 36 37" fill="none" xmlns="http://www.w3.org/2000/svg">
<g id="Linear / Users / User Hands">
<g id="Vector">
<path d="M12 20H24V27.5C24 30.3284 24 31.7426 23.1213 32.6213C22.2426 33.5 20.8284 33.5 18 33.5C15.1716 33.5 13.7574 33.5 12.8787 32.6213C12 31.7426 12 30.3284 12 27.5V20Z" fill="#E6EAF0"/>
<path d="M12 20H24M12 20V27.5C12 30.3284 12 31.7426 12.8787 32.6213C13.7574 33.5 15.1716 33.5 18 33.5C20.8284 33.5 22.2426 33.5 23.1213 32.6213C24 31.7426 24 30.3284 24 27.5V20M12 20C9.43392 20 7.27404 21.9207 6.97421 24.4692L6 32.75M24 20C26.5661 20 28.726 21.9207 29.0258 24.4692L30 32.75" stroke="#8E93AA" stroke-width="1.5" stroke-linecap="round"/>
</g>
<path id="Vector_2" d="M18 15.5C21.3137 15.5 24 12.8137 24 9.5C24 6.18629 21.3137 3.5 18 3.5C14.6863 3.5 12 6.18629 12 9.5C12 12.8137 14.6863 15.5 18 15.5Z" stroke="#8E93AA" stroke-width="1.5"/>
</g>
</svg>
