<svg width="20" height="20" viewBox="0 0 20 20" fill="none" xmlns="http://www.w3.org/2000/svg">
<g id="Linear / Arrows / Arrow Down">
<g id="Group">
<g id="Group_2">
<path id="Vector" d="M10.5203 13.454L16.4537 7.52053C16.5911 7.38329 16.6667 7.2001 16.6667 7.00476C16.6667 6.80942 16.5911 6.62623 16.4537 6.48899L16.0169 6.05203C15.7322 5.7677 15.2696 5.7677 14.9854 6.05203L10.0028 11.0345L5.01481 6.0465C4.87747 5.90927 4.69438 5.8335 4.49915 5.8335C4.3037 5.8335 4.12062 5.90927 3.98316 6.0465L3.54642 6.48346C3.40908 6.62081 3.33341 6.80389 3.33341 6.99923C3.33341 7.19457 3.40908 7.37777 3.54642 7.515L9.48523 13.454C9.62301 13.5916 9.80697 13.6671 10.0025 13.6667C10.1988 13.6671 10.3827 13.5916 10.5203 13.454Z" fill="#8E93AA"/>
</g>
</g>
</g>
</svg>
