<svg width="25" height="25" viewBox="0 0 25 25" fill="none" xmlns="http://www.w3.org/2000/svg">
<g id="logo">
<circle id="Ellipse 206" cx="12.5" cy="12.5" r="12" fill="white"/>
<g id="logo_2">
<path d="M8.53438 11.7944C8.63872 12.0063 8.68089 12.273 8.63449 12.5492C8.58813 12.8256 8.45333 13.1118 8.29025 13.376C8.17268 13.5666 8.04024 13.7456 7.90389 13.9215C7.55332 14.3136 7.35403 14.8453 7.38094 15.4289C7.46447 16.5881 8.44046 17.5618 9.60365 17.6458C10.81 17.7005 11.8004 16.7925 11.7915 15.5792C11.7874 14.9205 11.4989 14.3187 11.0439 13.892C10.9007 13.7452 10.7601 13.5922 10.6304 13.4132C10.3169 12.9806 10.0464 12.3966 10.325 11.8805C10.5072 11.543 11.6006 10.6136 11.9831 10.4478C12.7542 10.1135 13.414 10.4749 13.9469 11.0255C14.3734 11.4663 14.9679 11.745 15.618 11.7495C16.8363 11.7637 17.749 10.7783 17.6935 9.57065C17.6098 8.41142 16.6337 7.43785 15.4706 7.35369C14.0911 7.29118 14.0485 8.13436 13.0528 8.54697C12.1956 8.90236 11.2033 8.20241 10.7381 7.53444C10.2119 6.77881 10.7188 6.08404 11.2382 5.53085C11.621 5.21205 11.8643 4.79837 11.8763 4.37025C11.9043 3.60414 11.0763 3.10197 10.0556 3.18915C9.06478 3.32161 8.14929 3.98628 7.97415 4.72918C7.89337 5.14394 8.03269 5.51209 8.32838 5.7679C8.80035 6.24617 9.11827 6.67149 8.69979 7.34825C8.43443 7.77762 7.70247 8.66703 7.18452 8.82744C6.39239 9.0726 6.18282 8.62896 5.69273 8.20578C5.44353 7.97666 5.112 7.87492 4.74523 7.94276C3.99966 8.11626 3.33155 9.02767 3.19718 10.015C3.10835 11.0322 3.61099 11.8581 4.37979 11.8313C4.78533 11.8205 5.17816 11.6044 5.49015 11.2602C5.88493 10.904 6.06874 10.412 6.6545 10.3467C7.47737 10.2551 8.20703 11.1301 8.53438 11.7944Z" fill="url(#paint0_linear_1251_5430)"/>
<path d="M7.17838 2.25269C7.81294 1.99881 8.17999 2.01063 7.95441 2.31333C7.71825 2.69536 6.89841 3.26012 6.17384 3.52934C5.52802 3.81456 5.30199 3.6978 5.61026 3.31167C5.91638 2.98582 6.59949 2.52448 7.17838 2.25269ZM5.46776 18.3395C6.08501 18.6706 6.64956 19.3064 6.84345 19.9297L6.84484 19.9344C6.85665 19.9718 6.8672 20.0095 6.87637 20.0468C6.88823 20.088 6.89791 20.1278 6.90546 20.1664C6.98471 20.5563 6.84395 20.8107 6.56425 20.897L6.55921 20.8985C6.37618 20.9545 6.13399 20.9386 5.85397 20.8411C5.17525 20.5542 4.44889 19.8306 4.16745 19.1625C3.90302 18.4118 4.23279 17.9336 4.96296 18.1425C5.11983 18.1794 5.27875 18.2409 5.43462 18.3222L5.43685 18.3232L5.46776 18.3395ZM10.0517 21.8066C9.06104 21.6723 8.15519 21.0106 7.98051 20.2677C7.8163 19.4217 8.56699 18.7708 9.69175 18.8698C10.8615 18.9365 11.851 19.7528 11.8743 20.6282C11.9011 21.3944 11.0816 21.8968 10.0517 21.8066ZM15.4785 17.6476C14.2668 17.7033 13.278 16.7937 13.2919 15.5796C13.3004 14.3143 14.3581 13.2617 15.6277 13.255C16.8459 13.2427 17.7573 14.2295 17.7026 15.4319C17.6182 16.5912 16.6367 17.5682 15.4785 17.6476ZM15.0188 21.8103C13.998 21.8976 13.17 21.3954 13.1979 20.6292C13.2226 19.754 14.2134 18.9391 15.3896 18.8714C16.5145 18.7731 17.2648 19.4245 17.1001 20.2704C16.925 21.0133 16.0095 21.6778 15.0188 21.8103ZM20.1114 6.85702C19.9545 6.82024 19.7955 6.75874 19.6396 6.67749L19.6376 6.67637L19.6066 6.65996C18.9893 6.32898 18.4246 5.69316 18.2309 5.06974L18.2295 5.06514C18.2177 5.02763 18.2072 4.99009 18.1981 4.95269C18.1861 4.91148 18.1765 4.87178 18.1689 4.83314C18.0897 4.44317 18.2304 4.1889 18.5102 4.10257L18.5153 4.10106C18.6982 4.04507 18.9403 4.06089 19.2205 4.15842C19.8992 4.44523 20.6256 5.16882 20.907 5.83691C21.1714 6.58767 20.8415 7.06604 20.1114 6.85702ZM20.6945 11.8395C19.8162 11.8161 18.9973 10.8297 18.9306 9.66389C18.8275 8.53666 19.4849 7.7948 20.3291 7.95087C21.0746 8.12438 21.7427 9.03593 21.8769 10.0232C21.9659 11.0403 21.4633 11.8663 20.6945 11.8395ZM20.3291 17.0569C19.4849 17.2129 18.8275 16.471 18.9306 15.3439C18.9973 14.178 19.8162 13.1916 20.6945 13.1682C21.4633 13.1415 21.9659 13.9674 21.8769 14.9846C21.7427 15.9719 21.0746 16.8833 20.3291 17.0569ZM19.2203 20.8492C18.4667 21.1116 17.9871 20.7824 18.1979 20.055C18.4005 19.225 19.2843 18.3447 20.1114 18.1507C20.8415 17.9417 21.1713 18.42 20.9068 19.1707C20.6254 19.8388 19.8991 20.5623 19.2203 20.8492ZM22.753 7.92785C22.3742 7.7029 21.8014 6.87681 21.5367 6.16395C21.2433 5.51168 21.3602 5.28635 21.755 5.60217C22.0821 5.90705 22.5393 6.57771 22.8182 7.16457C23.0684 7.78641 23.0613 8.16275 22.753 7.92785ZM23.4047 11.9666C23.0311 11.9432 22.6193 11.1236 22.5282 10.157C22.392 9.22248 22.621 8.64735 22.9986 8.83415C23.2999 9.02712 23.6229 9.78285 23.7496 10.5568C23.835 11.3565 23.6932 11.9968 23.4047 11.9666ZM22.9986 16.1736C22.621 16.3604 22.392 15.7852 22.5282 14.8508C22.6193 13.8842 23.0311 13.0647 23.4047 13.0411C23.6932 13.0109 23.835 13.6511 23.7496 14.4509C23.6229 15.2249 23.2999 15.9805 22.9986 16.1736ZM21.755 19.4056C21.3602 19.7214 21.2433 19.4961 21.5367 18.8438C21.8014 18.131 22.3742 17.3048 22.753 17.0799C23.0613 16.845 23.0684 17.2213 22.8182 17.8431C22.5393 18.43 22.0821 19.1006 21.755 19.4056ZM7.18322 22.7438C6.60455 22.4715 5.92161 22.0099 5.61569 21.6838C5.30776 21.2975 5.52503 21.1738 6.17955 21.4665C6.90383 21.7361 7.72346 22.3014 7.95925 22.6836C8.1848 22.9864 7.81777 22.9981 7.18322 22.7438ZM10.5866 23.6728C9.81013 23.5463 9.05203 23.224 8.85839 22.9239C8.67103 22.5475 9.2482 22.3195 10.1857 22.4554C11.1555 22.5465 11.9778 22.957 12.0122 23.3299C12.0316 23.6168 11.4004 23.7592 10.5866 23.6728ZM14.4807 23.6759C13.6781 23.7598 13.0359 23.6175 13.0667 23.3302C13.0907 22.9578 13.9238 22.5472 14.8935 22.4569C15.8312 22.3215 16.3982 22.5535 16.2101 22.9297C16.0269 23.2261 15.2686 23.5478 14.4807 23.6759ZM17.8959 22.7469C17.2613 23.0008 16.8943 22.9888 17.1199 22.6861C17.356 22.3043 18.1759 21.7395 18.9005 21.4703C19.5462 21.185 19.7722 21.3018 19.464 21.6878C19.158 22.0138 18.4748 22.4751 17.8959 22.7469ZM15.0227 3.1931C16.0132 3.32726 16.9191 3.98895 17.0938 4.7319C17.2579 5.57779 16.5073 6.22889 15.3825 6.12977C14.2127 6.06311 13.2233 5.2468 13.1999 4.37135C13.1732 3.60512 13.9927 3.1029 15.0227 3.1931ZM4.37977 13.1601C5.25808 13.1836 6.07701 14.1699 6.14371 15.3357C6.24678 16.463 5.58933 17.2048 4.74525 17.0486C3.99966 16.8751 3.33155 15.9637 3.1972 14.9765C3.10835 13.9593 3.61098 13.1333 4.37977 13.1601ZM5.85394 4.15041C6.60758 3.88792 7.08712 4.2172 6.87637 4.94458C6.6737 5.77446 5.79007 6.65491 4.96293 6.84891C4.23276 7.05793 3.90299 6.57957 4.16742 5.82896C4.44886 5.16085 5.17522 4.43716 5.85394 4.15041ZM2.32137 17.0718C2.70005 17.2967 3.2727 18.1228 3.53758 18.8356C3.83088 19.488 3.71412 19.7132 3.31929 19.3974C2.99214 19.0926 2.53503 18.4219 2.25611 17.835C2.00589 17.2132 2.01291 16.8369 2.32137 17.0718ZM1.66954 13.033C2.04326 13.0564 2.45492 13.876 2.54597 14.8427C2.68209 15.777 2.45338 16.3523 2.07571 16.1655C1.77446 15.9724 1.45143 15.2168 1.32468 14.4428C1.23928 13.643 1.38119 13.0027 1.66954 13.033ZM2.07571 8.82598C2.45338 8.63922 2.68209 9.21441 2.54597 10.1488C2.45492 11.1154 2.04326 11.935 1.66954 11.9584C1.38119 11.9887 1.23928 11.3484 1.32468 10.5487C1.45143 9.77471 1.77446 9.01905 2.07571 8.82598ZM3.31929 5.59406C3.71412 5.27822 3.83088 5.50351 3.53758 6.15584C3.2727 6.86862 2.70005 7.6948 2.32137 7.91968C2.01291 8.15461 2.00589 7.77829 2.25611 7.15649C2.53503 6.5696 2.99214 5.89888 3.31929 5.59406ZM17.8911 2.25584C18.4697 2.52805 19.1526 2.98971 19.4586 3.31579C19.7665 3.70203 19.5492 3.82566 18.8948 3.53313C18.1704 3.2634 17.3508 2.69815 17.115 2.31604C16.8895 2.01314 17.2566 2.00151 17.8911 2.25584ZM14.4876 1.32685C15.2641 1.45326 16.0224 1.77553 16.2158 2.07567C16.4033 2.45207 15.8261 2.68 14.8885 2.54405C13.9187 2.45307 13.0964 2.04264 13.0621 1.66973C13.0426 1.38269 13.6738 1.24036 14.4876 1.32685ZM10.5935 1.32373C11.3962 1.23978 12.0384 1.38194 12.0076 1.66945C11.9836 2.04174 11.1505 2.45229 10.1807 2.54271C9.24309 2.6781 8.6761 2.44594 8.8641 2.0699C9.04736 1.77347 9.80571 1.45173 10.5935 1.32373Z" fill="url(#paint1_linear_1251_5430)"/>
</g>
</g>
<defs>
<linearGradient id="paint0_linear_1251_5430" x1="-136.509" y1="-13.4196" x2="-158.996" y2="-13.4196" gradientUnits="userSpaceOnUse">
<stop stop-color="#D10F5C"/>
<stop offset="1" stop-color="#E61D6C"/>
</linearGradient>
<linearGradient id="paint1_linear_1251_5430" x1="-83.8938" y1="-8.20905" x2="-106.368" y2="-8.20905" gradientUnits="userSpaceOnUse">
<stop stop-color="#1464C0"/>
<stop offset="1" stop-color="#14ADFF"/>
</linearGradient>
</defs>
</svg>
