<svg width="24" height="24" viewBox="0 0 24 24" fill="none" xmlns="http://www.w3.org/2000/svg">
<g id="Linear / Business, Statistic / Round Graph">
<path id="Ellipse 1" d="M16.5 12C16.5 14.6234 14.3734 16.75 11.75 16.75C9.12665 16.75 7 14.6234 7 12C7 9.37666 9.12665 7.25001 11.75 7.25001C14.3734 7.25001 16.5 9.37666 16.5 12Z" fill="#E6EAF0"/>
<path id="Vector" d="M12 2C17.5228 2 22 6.47715 22 12C22 17.5228 17.5228 22 12 22C6.47715 22 2 17.5228 2 12C2 9.20261 3.14864 6.67349 5 4.85857" stroke="#8E93AA" stroke-width="1.5" stroke-linecap="round"/>
<path id="Vector_2" d="M5 12C5 15.866 8.13401 19 12 19C15.866 19 19 15.866 19 12C19 8.13401 15.866 5 12 5" stroke="#8E93AA" stroke-width="1.5" stroke-linecap="round"/>
<path id="Vector_3" d="M12 16C14.2091 16 16 14.2091 16 12C16 9.79086 14.2091 8 12 8" stroke="#8E93AA" stroke-width="1.5" stroke-linecap="round"/>
</g>
</svg>
