<svg width="36" height="36" viewBox="0 0 36 36" fill="none" xmlns="http://www.w3.org/2000/svg">
<g id="user x36" clip-path="url(#clip0_1157_2932)">
<g id="User">
<path id="Vector" d="M35.5 18C35.5 27.665 27.665 35.5 18 35.5C8.33501 35.5 0.5 27.665 0.5 18C0.5 8.33501 8.33501 0.5 18 0.5C27.665 0.5 35.5 8.33501 35.5 18Z" fill="#F8FAFB" stroke="#E7EAF0"/>
<path id="Intersect" d="M31.1091 29.5381C27.9021 33.1615 23.2179 35.4447 17.9999 35.4447C12.7784 35.4447 8.09126 33.1584 4.88417 29.5307C6.36171 27.868 8.14524 26.4981 10.1423 25.4983C12.5812 24.2773 15.2713 23.642 17.9988 23.6428C20.7263 23.6437 23.4161 24.2807 25.8542 25.5033C27.8503 26.5041 29.6327 27.8749 31.1091 29.5381Z" fill="#8E93AA" stroke="#E7EAF0"/>
<g id="Group">
<path id="Vector_2" d="M18 20.5713C21.3137 20.5713 24 17.885 24 14.5713C24 11.2576 21.3137 8.57129 18 8.57129C14.6863 8.57129 12 11.2576 12 14.5713C12 17.885 14.6863 20.5713 18 20.5713Z" fill="#8E93AA"/>
</g>
</g>
</g>
<defs>
<clipPath id="clip0_1157_2932">
<rect width="36" height="36" fill="white"/>
</clipPath>
</defs>
</svg>
