<svg width="90" height="91" viewBox="0 0 90 91" fill="none" xmlns="http://www.w3.org/2000/svg">
<g id="user x90" clip-path="url(#clip0_1250_2860)">
<g id="User">
<path id="Vector" d="M89.4999 45.5C89.4999 70.0766 69.5766 89.9999 45 89.9999C20.4233 89.9999 0.5 70.0766 0.5 45.5C0.5 20.9233 20.4233 1 45 1C69.5766 1 89.4999 20.9233 89.4999 45.5Z" fill="#F8FAFB" stroke="#E7EAF0"/>
<path id="Intersect" d="M78.7687 74.3448C70.6068 83.8456 58.5063 89.8621 45.0001 89.8621C31.4848 89.8621 19.3772 83.8376 11.2151 74.3258C15.0551 69.8736 19.7447 66.2167 25.0202 63.5756C31.2219 60.4708 38.0622 58.8553 44.9977 58.8574C51.9331 58.8596 58.7725 60.4794 64.9722 63.5881C70.2452 66.2321 74.9319 69.8912 78.7687 74.3448Z" fill="#8E93AA" stroke="#E7EAF0"/>
<g id="Group">
<path id="Vector_2" d="M45 51.9287C53.2843 51.9287 60 45.213 60 36.9287C60 28.6444 53.2843 21.9287 45 21.9287C36.7157 21.9287 30 28.6444 30 36.9287C30 45.213 36.7157 51.9287 45 51.9287Z" fill="#8E93AA"/>
</g>
</g>
</g>
<defs>
<clipPath id="clip0_1250_2860">
<rect width="90" height="90" fill="white" transform="translate(0 0.5)"/>
</clipPath>
</defs>
</svg>
